<svg width="28" height="28" viewBox="0 0 28 28" fill="none" xmlns="http://www.w3.org/2000/svg">
<path d="M1.8453 24.0352L9.26997 16.6106M18.6196 13.3089L16.3971 19.9764C16.3617 20.0833 16.3009 20.18 16.2201 20.2584C16.1393 20.3368 16.0407 20.3946 15.9328 20.4267L2.30847 24.4762C2.18573 24.5127 2.05534 24.5148 1.93149 24.4823C1.80764 24.4498 1.69508 24.3839 1.60605 24.2919C1.51703 24.1999 1.45495 24.0852 1.42658 23.9603C1.39821 23.8354 1.40463 23.7052 1.44514 23.5837L5.86914 10.3141C5.90084 10.2188 5.95268 10.1314 6.02112 10.058C6.08956 9.9845 6.17301 9.92661 6.2658 9.88823L12.5506 7.30057C12.6784 7.2478 12.8189 7.23404 12.9545 7.26103C13.0901 7.28802 13.2147 7.35455 13.3125 7.45223L18.4505 12.5926C18.5424 12.6845 18.6069 12.8002 18.6368 12.9267C18.6667 13.0532 18.6607 13.1856 18.6196 13.3089Z" stroke="black" stroke-width="1.75" stroke-linecap="round" stroke-linejoin="round"/>
<path d="M18.7569 12.8984L22.0563 9.59791C22.4937 9.16035 22.7394 8.56696 22.7394 7.94825C22.7394 7.32953 22.4937 6.73614 22.0563 6.29858L19.5829 3.82291C19.3663 3.60614 19.109 3.43419 18.8258 3.31687C18.5427 3.19954 18.2392 3.13916 17.9327 3.13916C17.6262 3.13916 17.3227 3.19954 17.0395 3.31687C16.7564 3.43419 16.4991 3.60614 16.2824 3.82291L12.9831 7.12341M11.7441 14.1351C11.5816 13.9726 11.3886 13.8437 11.1762 13.7558C10.9639 13.6679 10.7363 13.6227 10.5064 13.6228C10.2766 13.6228 10.049 13.6681 9.83673 13.7561C9.62441 13.8441 9.43151 13.9731 9.26903 14.1357C9.10655 14.2982 8.97768 14.4912 8.88978 14.7035C8.80187 14.9159 8.75666 15.1435 8.75671 15.3733C8.75677 15.6032 8.80209 15.8307 8.89009 16.043C8.9781 16.2554 9.10706 16.4483 9.26961 16.6107C9.59791 16.9389 10.0431 17.1232 10.5073 17.1231C10.9714 17.123 11.4166 16.9385 11.7447 16.6102C12.0728 16.2819 12.2571 15.8367 12.257 15.3725C12.2569 14.9083 12.0724 14.4632 11.7441 14.1351Z" stroke="black" stroke-width="1.75" stroke-linecap="round" stroke-linejoin="round"/>
</svg>
