<svg width="29" height="28" viewBox="0 0 29 28" fill="none" xmlns="http://www.w3.org/2000/svg">
<path d="M11.3576 6.9619C11.1786 6.78314 10.936 6.68274 10.6831 6.68274C10.4301 6.68274 10.1875 6.78314 10.0085 6.9619L3.64488 13.3255C3.46613 13.5045 3.36572 13.7471 3.36572 14.0001C3.36572 14.253 3.46613 14.4956 3.64488 14.6746L10.0085 21.0383C10.1875 21.217 10.4301 21.3174 10.6831 21.3174C10.936 21.3174 11.1786 21.217 11.3576 21.0383C11.5364 20.8593 11.6368 20.6167 11.6368 20.3637C11.6368 20.1108 11.5364 19.8681 11.3576 19.6892L5.66852 14.0001L11.3576 8.31099C11.5364 8.13201 11.6368 7.8894 11.6368 7.63644C11.6368 7.38349 11.5364 7.14088 11.3576 6.9619ZM25.3576 13.3255L18.994 6.9619C18.813 6.79329 18.5737 6.7015 18.3264 6.70586C18.0791 6.71022 17.8432 6.8104 17.6683 6.98529C17.4934 7.16018 17.3932 7.39612 17.3888 7.64342C17.3845 7.89071 17.4763 8.13004 17.6449 8.31099L23.334 14.0001L17.6449 19.6892C17.4661 19.8681 17.3657 20.1108 17.3657 20.3637C17.3657 20.6167 17.4661 20.8593 17.6449 21.0383C17.8239 21.217 18.0665 21.3174 18.3194 21.3174C18.5724 21.3174 18.815 21.217 18.994 21.0383L25.3576 14.6746C25.5364 14.4956 25.6368 14.253 25.6368 14.0001C25.6368 13.7471 25.5364 13.5045 25.3576 13.3255Z" fill="black"/>
</svg>
