<svg width="28" height="28" viewBox="0 0 28 28" fill="none" xmlns="http://www.w3.org/2000/svg">
<path d="M8.85761 6.9619C8.67863 6.78314 8.43602 6.68274 8.18306 6.68274C7.93011 6.68274 7.6875 6.78314 7.50852 6.9619L1.14488 13.3255C0.966128 13.5045 0.865723 13.7471 0.865723 14.0001C0.865723 14.253 0.966128 14.4956 1.14488 14.6746L7.50852 21.0383C7.6875 21.217 7.93011 21.3174 8.18306 21.3174C8.43602 21.3174 8.67863 21.217 8.85761 21.0383C9.03636 20.8593 9.13677 20.6167 9.13677 20.3637C9.13677 20.1108 9.03636 19.8681 8.85761 19.6892L3.16852 14.0001L8.85761 8.31099C9.03636 8.13201 9.13677 7.8894 9.13677 7.63644C9.13677 7.38349 9.03636 7.14088 8.85761 6.9619ZM22.8576 13.3255L16.494 6.9619C16.313 6.79329 16.0737 6.7015 15.8264 6.70586C15.5791 6.71022 15.3432 6.8104 15.1683 6.98529C14.9934 7.16018 14.8932 7.39612 14.8888 7.64342C14.8845 7.89071 14.9763 8.13004 15.1449 8.31099L20.834 14.0001L15.1449 19.6892C14.9661 19.8681 14.8657 20.1108 14.8657 20.3637C14.8657 20.6167 14.9661 20.8593 15.1449 21.0383C15.3239 21.217 15.5665 21.3174 15.8194 21.3174C16.0724 21.3174 16.315 21.217 16.494 21.0383L22.8576 14.6746C23.0364 14.4956 23.1368 14.253 23.1368 14.0001C23.1368 13.7471 23.0364 13.5045 22.8576 13.3255Z" fill="black"/>
</svg>
