<svg width="28" height="28" viewBox="0 0 28 28" fill="none" xmlns="http://www.w3.org/2000/svg">
<path d="M26.7751 16.4502C26.6832 16.5191 26.5786 16.5693 26.4672 16.5978C26.3559 16.6263 26.2401 16.6326 26.1263 16.6164C26.0126 16.6001 25.9032 16.5616 25.8043 16.5031C25.7054 16.4445 25.619 16.3671 25.5501 16.2752C25.0227 15.5663 24.3362 14.9911 23.5459 14.5959C22.7557 14.2008 21.8836 13.9967 21.0001 14.0002C20.828 14.0001 20.6598 13.9494 20.5164 13.8543C20.373 13.7591 20.2609 13.6238 20.194 13.4653C20.1486 13.3577 20.1252 13.242 20.1252 13.1252C20.1252 13.0083 20.1486 12.8927 20.194 12.785C20.2609 12.6265 20.373 12.4912 20.5164 12.396C20.6598 12.3009 20.828 12.2502 21.0001 12.2502C21.491 12.2501 21.9721 12.1124 22.3887 11.8526C22.8053 11.5929 23.1408 11.2215 23.3569 10.7806C23.573 10.3398 23.6611 9.8472 23.6113 9.35878C23.5615 8.87037 23.3757 8.40571 23.075 8.01759C22.7744 7.62947 22.3709 7.33344 21.9104 7.16314C21.4499 6.99284 20.9509 6.95509 20.4701 7.05417C19.9892 7.15325 19.5458 7.3852 19.1902 7.72366C18.8345 8.06212 18.5809 8.49354 18.4582 8.9689C18.4295 9.08022 18.3791 9.18479 18.31 9.27664C18.2408 9.36849 18.1543 9.44582 18.0553 9.50422C17.9562 9.56262 17.8467 9.60094 17.7328 9.617C17.619 9.63306 17.5031 9.62654 17.3918 9.59781C17.2805 9.56908 17.1759 9.51871 17.0841 9.44957C16.9922 9.38044 16.9149 9.29388 16.8565 9.19486C16.7981 9.09583 16.7598 8.98627 16.7437 8.87244C16.7277 8.7586 16.7342 8.64272 16.7629 8.5314C16.9333 7.87222 17.2551 7.26189 17.7029 6.74898C18.1506 6.23607 18.7119 5.83473 19.342 5.57691C19.9722 5.31909 20.6538 5.2119 21.3326 5.26386C22.0115 5.31582 22.6689 5.52551 23.2524 5.87623C23.836 6.22695 24.3296 6.70903 24.6941 7.28411C25.0586 7.85919 25.2838 8.5114 25.3518 9.18883C25.4199 9.86627 25.3289 10.5502 25.0861 11.1863C24.8433 11.8224 24.4554 12.393 23.9532 12.8528C25.143 13.368 26.1773 14.1854 26.9534 15.2241C27.0223 15.3162 27.0724 15.4211 27.1007 15.5326C27.1291 15.6442 27.1352 15.7602 27.1186 15.8741C27.102 15.988 27.0632 16.0975 27.0042 16.1963C26.9453 16.2952 26.8674 16.3814 26.7751 16.4502ZM20.882 23.1877C20.9453 23.2872 20.9878 23.3986 21.0069 23.5151C21.0261 23.6315 21.0215 23.7506 20.9934 23.8652C20.9653 23.9799 20.9144 24.0876 20.8436 24.182C20.7728 24.2764 20.6836 24.3556 20.5814 24.4146C20.4793 24.4737 20.3662 24.5115 20.249 24.5257C20.1319 24.5399 20.0131 24.5303 19.8997 24.4974C19.7864 24.4645 19.6809 24.4091 19.5895 24.3344C19.4982 24.2596 19.4229 24.1672 19.3682 24.0627C18.817 23.1293 18.032 22.3558 17.0906 21.8185C16.1492 21.2812 15.084 20.9986 14.0001 20.9986C12.9161 20.9986 11.8509 21.2812 10.9096 21.8185C9.96818 22.3558 9.18316 23.1293 8.63196 24.0627C8.57726 24.1672 8.50198 24.2596 8.41063 24.3344C8.31928 24.4091 8.21377 24.4645 8.10043 24.4974C7.9871 24.5303 7.86828 24.5399 7.75113 24.5257C7.63398 24.5115 7.52092 24.4737 7.41875 24.4146C7.31658 24.3556 7.22741 24.2764 7.15661 24.182C7.08581 24.0876 7.03484 23.9799 7.00676 23.8652C6.97869 23.7506 6.97409 23.6315 6.99324 23.5151C7.01239 23.3986 7.0549 23.2872 7.11821 23.1877C7.96652 21.7301 9.25999 20.5831 10.8085 19.9152C9.93717 19.248 9.29677 18.3246 8.97737 17.2747C8.65796 16.2247 8.6756 15.1011 9.02781 14.0617C9.38001 13.0224 10.0491 12.1195 10.9409 11.48C11.8328 10.8406 12.9027 10.4966 14.0001 10.4966C15.0975 10.4966 16.1674 10.8406 17.0592 11.48C17.9511 12.1195 18.6202 13.0224 18.9724 14.0617C19.3246 15.1011 19.3422 16.2247 19.0228 17.2747C18.7034 18.3246 18.063 19.248 17.1917 19.9152C18.7402 20.5831 20.0337 21.7301 20.882 23.1877ZM14.0001 19.2502C14.6923 19.2502 15.369 19.0449 15.9446 18.6603C16.5202 18.2757 16.9688 17.7291 17.2337 17.0895C17.4986 16.45 17.5679 15.7463 17.4328 15.0673C17.2978 14.3884 16.9644 13.7648 16.475 13.2753C15.9855 12.7858 15.3618 12.4525 14.6829 12.3174C14.004 12.1824 13.3002 12.2517 12.6607 12.5166C12.0212 12.7815 11.4745 13.2301 11.0899 13.8057C10.7054 14.3812 10.5001 15.0579 10.5001 15.7502C10.5001 16.6784 10.8688 17.5687 11.5252 18.225C12.1816 18.8814 13.0718 19.2502 14.0001 19.2502ZM7.87509 13.1252C7.87509 12.8931 7.7829 12.6705 7.61881 12.5064C7.45471 12.3423 7.23215 12.2502 7.00009 12.2502C6.50913 12.2501 6.02803 12.1124 5.61143 11.8526C5.19483 11.5929 4.85942 11.2215 4.64331 10.7806C4.4272 10.3398 4.33905 9.8472 4.38887 9.35878C4.43869 8.87037 4.62448 8.40571 4.92514 8.01759C5.22581 7.62947 5.62929 7.33344 6.08976 7.16314C6.55023 6.99284 7.04923 6.95509 7.53008 7.05417C8.01093 7.15325 8.45436 7.3852 8.81 7.72366C9.16563 8.06212 9.41922 8.49354 9.54196 8.9689C9.59998 9.19372 9.74492 9.38627 9.94491 9.50422C10.1449 9.62216 10.3836 9.65583 10.6084 9.59781C10.8332 9.53979 11.0257 9.39485 11.1437 9.19486C11.2616 8.99487 11.2953 8.75622 11.2373 8.5314C11.0669 7.87222 10.7451 7.26189 10.2973 6.74898C9.84958 6.23607 9.2883 5.83473 8.65816 5.57691C8.02802 5.31909 7.3464 5.2119 6.66754 5.26386C5.98868 5.31582 5.33132 5.52551 4.74776 5.87623C4.1642 6.22695 3.67054 6.70903 3.30608 7.28411C2.94161 7.85919 2.7164 8.5114 2.64835 9.18883C2.5803 9.86627 2.6713 10.5502 2.9141 11.1863C3.15691 11.8224 3.54482 12.393 4.04696 12.8528C2.85837 13.3685 1.82524 14.1859 1.05009 15.2241C0.910704 15.4097 0.850779 15.6431 0.883495 15.873C0.916211 16.1028 1.03889 16.3102 1.22454 16.4496C1.41019 16.589 1.64361 16.6489 1.87344 16.6162C2.10328 16.5835 2.3107 16.4608 2.45009 16.2752C2.97748 15.5663 3.66395 14.9911 4.45423 14.5959C5.24451 14.2008 6.11653 13.9967 7.00009 14.0002C7.23215 14.0002 7.45471 13.908 7.61881 13.7439C7.7829 13.5798 7.87509 13.3572 7.87509 13.1252Z" fill="black"/>
</svg>
