<svg width="28" height="28" viewBox="0 0 28 28" fill="none" xmlns="http://www.w3.org/2000/svg">
<g clip-path="url(#clip0_3450_737)">
<path d="M3.1527 7.03262C3.0757 5.95928 3.73603 3.83362 5.55137 2.94578C6.30037 2.49078 8.35487 1.78612 10.3195 3.04145C12.2562 4.27812 12.3869 6.10045 12.5094 7.01978" stroke="black" stroke-width="1.75" stroke-linecap="round" stroke-linejoin="round"/>
<path d="M15.0259 25.6689C14.9734 23.7602 15.0935 23.5712 15.2335 23.1466C15.3735 22.7219 16.3489 21.1901 16.6942 20.0969C17.8107 16.5572 16.77 15.8036 15.3817 14.8002C13.8417 13.6872 11.072 13.1342 9.63002 13.2567V7.61008C9.63002 6.65108 8.71069 5.86475 7.72719 5.86475C6.74369 5.86475 5.83836 6.64991 5.83836 7.61125V17.3086L3.83286 15.5691C3.17952 14.8772 2.13069 14.8072 1.41436 15.4361C1.08801 15.7196 0.882586 16.1173 0.840278 16.5476C0.79797 16.9778 0.921985 17.4079 1.18686 17.7496L2.50519 19.4576C2.78869 19.8192 3.10719 20.2276 3.46886 20.7059M5.78352 25.6689V24.6737C5.82786 23.4452 4.91319 22.6437 3.72086 21.0407L3.46886 20.7059M3.46886 20.7059L4.66236 22.2529M3.47002 20.7059L2.50752 19.4576C1.92419 18.7179 1.48319 18.1801 1.10402 17.6457" stroke="black" stroke-width="1.75" stroke-linecap="round" stroke-linejoin="round"/>
</g>
<defs>
<clipPath id="clip0_3450_737">
<rect width="28" height="28" fill="white"/>
</clipPath>
</defs>
</svg>
