<svg width="28" height="28" viewBox="0 0 28 28" fill="none" xmlns="http://www.w3.org/2000/svg">
<path d="M3.8453 24.0352L11.27 16.6106M20.6196 13.3089L18.3971 19.9764C18.3617 20.0833 18.3009 20.18 18.2201 20.2584C18.1393 20.3368 18.0407 20.3946 17.9328 20.4267L4.30847 24.4762C4.18573 24.5127 4.05534 24.5148 3.93149 24.4823C3.80764 24.4498 3.69508 24.3839 3.60605 24.2919C3.51703 24.1999 3.45495 24.0852 3.42658 23.9603C3.39821 23.8354 3.40463 23.7052 3.44514 23.5837L7.86914 10.3141C7.90084 10.2188 7.95268 10.1314 8.02112 10.058C8.08956 9.9845 8.17301 9.92661 8.2658 9.88823L14.5506 7.30057C14.6784 7.2478 14.8189 7.23404 14.9545 7.26103C15.0901 7.28802 15.2147 7.35455 15.3125 7.45223L20.4505 12.5926C20.5424 12.6845 20.6069 12.8002 20.6368 12.9267C20.6667 13.0532 20.6607 13.1856 20.6196 13.3089Z" stroke="black" stroke-width="1.75" stroke-linecap="round" stroke-linejoin="round"/>
<path d="M20.7568 12.8984L24.0562 9.59791C24.4936 9.16035 24.7393 8.56696 24.7393 7.94825C24.7393 7.32953 24.4936 6.73614 24.0562 6.29858L21.5828 3.82291C21.3661 3.60614 21.1089 3.43419 20.8257 3.31687C20.5426 3.19954 20.2391 3.13916 19.9326 3.13916C19.6261 3.13916 19.3226 3.19954 19.0394 3.31687C18.7563 3.43419 18.499 3.60614 18.2823 3.82291L14.983 7.12341M13.744 14.1351C13.5814 13.9726 13.3885 13.8437 13.1761 13.7558C12.9638 13.6679 12.7362 13.6227 12.5063 13.6228C12.2765 13.6228 12.0489 13.6681 11.8366 13.7561C11.6243 13.8441 11.4314 13.9731 11.2689 14.1357C11.1064 14.2982 10.9776 14.4912 10.8897 14.7035C10.8018 14.9159 10.7565 15.1435 10.7566 15.3733C10.7566 15.6032 10.802 15.8307 10.89 16.043C10.978 16.2554 11.1069 16.4483 11.2695 16.6107C11.5978 16.9389 12.043 17.1232 12.5072 17.1231C12.9713 17.123 13.4164 16.9385 13.7446 16.6102C14.0727 16.2819 14.257 15.8367 14.2569 15.3725C14.2568 14.9083 14.0723 14.4632 13.744 14.1351Z" stroke="black" stroke-width="1.75" stroke-linecap="round" stroke-linejoin="round"/>
</svg>
