<svg width="28" height="28" viewBox="0 0 28 28" fill="none" xmlns="http://www.w3.org/2000/svg">
<path d="M8.16667 9.32979H7.20533C5.45883 9.32979 4.585 9.32979 4.04367 8.81646C3.5 8.30662 3.5 7.48179 3.5 5.83329C3.5 4.18479 3.5 3.35996 4.0425 2.84896C4.585 2.33679 5.45883 2.33679 7.20533 2.33679H20.7935C22.5412 2.33679 23.415 2.33679 23.9575 2.84896C24.5 3.36113 24.5 4.18363 24.5 5.83213C24.5 7.48063 24.5 8.30546 23.9575 8.81763C23.415 9.32979 22.5412 9.32979 20.7935 9.32979H19.25" stroke="black" stroke-width="1.5" stroke-linecap="round" stroke-linejoin="round"/>
<path d="M21.035 25.6561C20.9767 23.6576 21.14 23.3928 21.2929 22.9495C21.4469 22.5038 22.3977 20.9253 22.778 19.7785C24.0054 16.0708 23.0662 15.4443 21.595 14.3185C19.9104 13.027 17.0567 12.3701 15.2775 12.5125V7.74079C15.2775 6.73396 14.3139 5.85779 13.2335 5.85779C12.1532 5.85779 11.1965 6.73396 11.1965 7.74079V16.7848L8.89704 14.8271C8.27638 14.2006 7.28354 14.2578 6.56371 14.7326C6.33986 14.8807 6.16041 15.0867 6.04454 15.3288C5.71788 16.016 5.81121 16.793 6.32688 17.4288L7.63354 19.1146M7.63354 19.1146C7.94621 19.4926 8.26238 19.9336 8.65904 20.4353M7.63354 19.1146L8.65904 20.4353M11.116 25.6631V24.5595C11.2012 23.2026 9.96921 22.1141 8.65904 20.4353M8.65904 20.4353C8.56454 20.314 8.74771 20.5485 8.65904 20.4353ZM8.65904 20.4353L9.95054 22.015" stroke="black" stroke-width="1.5" stroke-linecap="round" stroke-linejoin="round"/>
</svg>
