<svg width="16" height="16" viewBox="0 0 16 16" fill="none" xmlns="http://www.w3.org/2000/svg">
<g clip-path="url(#clip0_2972_65976)">
<path d="M1.29069 6.22741C1.29069 5.35655 1.84498 5.49255 2.61412 5.49255C3.38326 5.49255 3.92612 5.35655 3.92612 6.22741V14.712C3.92612 15.5943 3.37184 15.4137 2.61412 15.4137C1.85641 15.4137 1.29069 15.5943 1.29069 14.712V6.22741Z" fill="#727272"/>
<path d="M4.08498 2.01941C4.08808 2.41459 3.93551 2.79512 3.66027 3.0787C3.38502 3.36229 3.00922 3.52614 2.61412 3.53484C2.21985 3.52052 1.84615 3.35525 1.57028 3.07321C1.2944 2.79116 1.13744 2.4139 1.13184 2.01941C1.14887 1.63496 1.31154 1.27139 1.58682 1.00248C1.8621 0.733562 2.22938 0.57945 2.61412 0.571411C2.99773 0.579604 3.36371 0.734102 3.63714 1.00328C3.91057 1.27247 4.07078 1.63598 4.08498 2.01941Z" fill="#727272"/>
<path d="M6.21184 6.22855C6.21184 5.7417 6.39241 5.55998 6.67469 5.50398C6.95698 5.44798 7.93184 5.50398 8.27012 5.50398C8.60955 5.50398 8.74555 6.05827 8.73412 6.47655C9.02479 6.08741 9.41022 5.77914 9.85373 5.58109C10.2972 5.38304 10.7841 5.30181 11.2678 5.34513C11.743 5.31611 12.2189 5.38737 12.6647 5.55426C13.1105 5.72115 13.5162 5.97995 13.8555 6.31384C14.1948 6.64774 14.4601 7.04926 14.6341 7.49235C14.8081 7.93543 14.887 8.41015 14.8656 8.8857V14.6777C14.8656 15.56 14.3227 15.3794 13.5524 15.3794C12.7821 15.3794 12.2404 15.56 12.2404 14.6777V10.1531C12.2603 9.92029 12.2299 9.6859 12.1512 9.46587C12.0725 9.24583 11.9474 9.04531 11.7844 8.87792C11.6213 8.71052 11.4241 8.58018 11.2062 8.49574C10.9883 8.41131 10.7548 8.37475 10.5216 8.38855C10.2892 8.38243 10.0582 8.42578 9.84381 8.51572C9.62947 8.60566 9.43669 8.74013 9.27826 8.91023C9.11983 9.08033 8.99937 9.28217 8.92487 9.50236C8.85037 9.72255 8.82353 9.95606 8.84612 10.1874V14.712C8.84612 15.5943 8.29184 15.4137 7.52269 15.4137C6.75355 15.4137 6.21069 15.5943 6.21069 14.712L6.21184 6.22855Z" fill="#727272"/>
<path d="M1.29069 6.22741C1.29069 5.35655 1.84498 5.49255 2.61412 5.49255C3.38326 5.49255 3.92612 5.35655 3.92612 6.22741V14.712C3.92612 15.5943 3.37184 15.4137 2.61412 15.4137C1.85641 15.4137 1.29069 15.5943 1.29069 14.712V6.22741Z" stroke="#727272" stroke-linecap="round" stroke-linejoin="round"/>
<path d="M4.08498 2.01941C4.08808 2.41459 3.93551 2.79512 3.66027 3.0787C3.38502 3.36229 3.00922 3.52614 2.61412 3.53484C2.21985 3.52052 1.84615 3.35525 1.57028 3.07321C1.2944 2.79116 1.13744 2.4139 1.13184 2.01941C1.14887 1.63496 1.31154 1.27139 1.58682 1.00248C1.8621 0.733562 2.22938 0.57945 2.61412 0.571411C2.99773 0.579604 3.36371 0.734102 3.63714 1.00328C3.91057 1.27247 4.07078 1.63598 4.08498 2.01941Z" stroke="#727272" stroke-linecap="round" stroke-linejoin="round"/>
<path d="M6.21184 6.22855C6.21184 5.7417 6.39241 5.55998 6.67469 5.50398C6.95698 5.44798 7.93184 5.50398 8.27012 5.50398C8.60955 5.50398 8.74555 6.05827 8.73412 6.47655C9.02479 6.08741 9.41022 5.77914 9.85373 5.58109C10.2972 5.38304 10.7841 5.30181 11.2678 5.34513C11.743 5.31611 12.2189 5.38737 12.6647 5.55426C13.1105 5.72115 13.5162 5.97995 13.8555 6.31384C14.1948 6.64774 14.4601 7.04926 14.6341 7.49235C14.8081 7.93543 14.887 8.41015 14.8656 8.8857V14.6777C14.8656 15.56 14.3227 15.3794 13.5524 15.3794C12.7821 15.3794 12.2404 15.56 12.2404 14.6777V10.1531C12.2603 9.92029 12.2299 9.6859 12.1512 9.46587C12.0725 9.24583 11.9474 9.04531 11.7844 8.87792C11.6213 8.71052 11.4241 8.58018 11.2062 8.49574C10.9883 8.41131 10.7548 8.37475 10.5216 8.38855C10.2892 8.38243 10.0582 8.42578 9.84381 8.51572C9.62947 8.60566 9.43669 8.74013 9.27826 8.91023C9.11983 9.08033 8.99937 9.28217 8.92487 9.50236C8.85037 9.72255 8.82353 9.95606 8.84612 10.1874V14.712C8.84612 15.5943 8.29184 15.4137 7.52269 15.4137C6.75355 15.4137 6.21069 15.5943 6.21069 14.712L6.21184 6.22855Z" stroke="#727272" stroke-linecap="round" stroke-linejoin="round"/>
</g>
<defs>
<clipPath id="clip0_2972_65976">
<rect width="16" height="16" fill="white"/>
</clipPath>
</defs>
</svg>
