<svg width="16" height="14" viewBox="0 0 16 14" fill="none" xmlns="http://www.w3.org/2000/svg">
<path d="M0.96875 5.62695L0.969727 5.62793L1.00586 5.61426L1.00488 5.61328H1.00781L1.00684 5.6123C1.03111 5.60233 1.06823 5.58669 1.11523 5.56738C1.20919 5.52879 1.34704 5.47244 1.52246 5.40039C1.87388 5.25606 2.37704 5.04992 2.98145 4.80176C4.19021 4.30546 5.80645 3.64213 7.43652 2.97363L11.9805 1.10938C13.227 0.600103 14.0529 0.261195 14.2471 0.185547H14.251L14.2598 0.181641C14.4375 0.109427 14.6263 0.065717 14.8184 0.0517578C14.9839 0.0436028 15.1483 0.0719421 15.2998 0.133789L15.4463 0.206055C15.643 0.325833 15.7925 0.504699 15.874 0.713867L15.9053 0.804688C15.9741 1.05086 15.9586 1.30675 15.8945 1.58496V1.58691L13.5957 13.0527L13.5771 13.1016L13.5762 13.1025L13.5752 13.1055C13.5743 13.1077 13.5731 13.111 13.5713 13.1152C13.5674 13.1242 13.561 13.1374 13.5527 13.1543C13.536 13.1884 13.5106 13.2374 13.4746 13.2939C13.4025 13.4071 13.2894 13.5511 13.1279 13.6777C12.8106 13.9266 12.2025 14.0721 11.5996 13.8145L11.5986 13.8135L11.5371 13.7881L8.56738 11.5693L8.53516 11.5449L8.50488 11.5713L6.73242 13.1436L6.71094 13.1602L6.69629 13.1699C6.68576 13.1769 6.66997 13.1874 6.64941 13.1992C6.60826 13.2228 6.54862 13.2533 6.47461 13.2793C6.32629 13.3314 6.12248 13.3662 5.89746 13.2998V13.2988L5.8916 13.2979L5.8291 13.2861L5.83105 13.2803C5.80673 13.2736 5.78289 13.2656 5.75977 13.2559L5.69238 13.2217C5.60691 13.1686 5.53404 13.1031 5.47363 13.0244L5.47266 13.0234L5.37988 12.8945C5.29049 12.7534 5.21042 12.5717 5.12793 12.3154C4.94008 11.7388 4.15957 9.23904 4.02441 8.81641L4.0166 8.79199L3.99219 8.78418L0.986328 7.79785L0.979492 7.7959H0.976562L0.974609 7.79492C0.969146 7.79293 0.960675 7.79024 0.950195 7.78613C0.929041 7.77783 0.898309 7.76511 0.861328 7.74805C0.78721 7.71385 0.687535 7.66222 0.585938 7.5918C0.383578 7.45158 0.109369 7.20209 0.0566406 6.79004C0.0248473 6.5492 0.111035 6.3142 0.21875 6.16016C0.309737 6.02965 0.427382 5.91841 0.564453 5.83398L0.566406 5.83301C0.678728 5.75803 0.788889 5.70311 0.871094 5.66699C0.911722 5.64914 0.945261 5.6357 0.96875 5.62695ZM14.7529 1.18066C14.745 1.18066 14.737 1.181 14.7305 1.18164C14.7205 1.18261 14.7124 1.18511 14.7041 1.18945L14.6943 1.19434C14.6908 1.19612 14.6842 1.19981 14.6729 1.2041H14.6719C13.9202 1.50808 13.1691 1.81352 12.4189 2.12109C11.1541 2.64152 9.50929 3.31659 7.87695 3.98633C6.24673 4.65489 4.62936 5.31813 3.41992 5.81445C2.81534 6.06256 2.31256 6.26876 1.96094 6.41309C1.78511 6.48525 1.64681 6.54244 1.55273 6.58105C1.50582 6.60031 1.46956 6.61505 1.44531 6.625L1.41113 6.63965H1.40918L1.39258 6.64551L1.38672 6.64844L1.36719 6.65723L1.35254 6.66309L1.19141 6.72559L1.34766 6.75586L1.36426 6.76172L4.92871 7.92969L4.93945 7.9834L5 7.94727L12.4951 3.4248C12.4976 3.42361 12.501 3.42111 12.5059 3.41895C12.5157 3.41455 12.53 3.4088 12.5469 3.40234C12.5813 3.38917 12.6257 3.37543 12.668 3.36914C12.7121 3.36257 12.7441 3.36587 12.7627 3.37695C12.7756 3.38465 12.7926 3.40214 12.7891 3.45801L12.7871 3.48926L12.8008 3.49707V3.5C12.7944 3.52439 12.7633 3.58299 12.6426 3.69238L6.69922 9.08887L6.68555 9.10059L6.68262 9.11816L6.22168 11.9902L6.19922 12.1289L6.30371 12.0361L8.4707 10.1113L12.0762 12.8037L12.0752 12.8057L12.0879 12.8105C12.1884 12.8494 12.2557 12.8662 12.3066 12.8652C12.3635 12.8641 12.3962 12.8409 12.4229 12.8203C12.4771 12.7782 12.4984 12.7336 12.5068 12.7197L12.5117 12.7119L12.5137 12.7041L14.79 1.35352L14.7412 1.34375L14.791 1.35352V1.34375C14.799 1.30969 14.8019 1.29003 14.8027 1.27344V1.23438L14.8066 1.18066H14.7529ZM14.6924 1.3252L14.7412 1.33691L14.6914 1.3252V1.33691L12.416 12.6768C12.4058 12.6943 12.3925 12.717 12.3613 12.7412C12.34 12.7577 12.3289 12.7651 12.3047 12.7656C12.2752 12.7661 12.2253 12.7558 12.1309 12.7197L8.49805 10.0068L8.46582 9.98242L8.43457 10.0098L6.3418 11.8672L6.7793 9.15039L12.71 3.7666C12.8333 3.65484 12.8834 3.57893 12.8975 3.52441C12.9049 3.4953 12.9024 3.4704 12.8926 3.4502C12.8913 3.44759 12.8891 3.44562 12.8877 3.44336C12.8874 3.37367 12.8643 3.32091 12.8145 3.29102C12.7654 3.26168 12.7038 3.26204 12.6533 3.26953C12.6011 3.27731 12.5493 3.29422 12.5117 3.30859C12.4927 3.31588 12.4761 3.32308 12.4648 3.32812C12.4595 3.33053 12.4552 3.33254 12.4521 3.33398C12.4506 3.33473 12.4491 3.33551 12.4482 3.33594H12.4473V3.33691H12.4463L12.4434 3.33887L4.97949 7.8418L1.51367 6.7041C1.53457 6.69552 1.56068 6.6862 1.59082 6.67383C1.68489 6.63521 1.8232 6.57803 1.99902 6.50586C2.35065 6.36153 2.85343 6.15533 3.45801 5.90723C4.66744 5.41091 6.28482 4.74766 7.91504 4.0791C9.54734 3.40938 11.1921 2.73432 12.457 2.21387C13.2027 1.90811 13.9491 1.60396 14.6963 1.30176C14.6949 1.30823 14.6945 1.31613 14.6924 1.3252Z" fill="#727272" stroke="#727272" stroke-width="0.1"/>
</svg>
