<svg width="15" height="14" viewBox="0 0 15 14" fill="none" xmlns="http://www.w3.org/2000/svg">
<path d="M13.6642 0.247699C13.4836 0.261091 13.3064 0.303444 13.1394 0.373136H13.1371C12.9768 0.436699 12.2146 0.757324 11.0559 1.24332L6.90348 2.99214C3.92392 4.24651 0.99498 5.48176 0.99498 5.48176L1.02985 5.46826C1.02985 5.46826 0.827917 5.53464 0.61698 5.6792C0.486369 5.76175 0.374162 5.87032 0.287355 5.99814C0.183855 6.15001 0.100605 6.38232 0.131542 6.62251C0.182167 7.02864 0.445417 7.2722 0.634417 7.40664C0.825667 7.54276 1.00792 7.60632 1.00792 7.60632H1.01242L3.7591 8.53164C3.88229 8.92707 4.5961 11.2738 4.76767 11.8144C4.86892 12.1373 4.96735 12.3392 5.09054 12.4933C5.14942 12.5721 5.22048 12.6379 5.30373 12.6908C5.34697 12.7168 5.39351 12.7368 5.4421 12.7504L5.41398 12.7436C5.42242 12.7459 5.42917 12.7526 5.43535 12.7549C5.45785 12.7611 5.47304 12.7633 5.50173 12.7678C5.93654 12.8994 6.28585 12.6294 6.28585 12.6294L6.30554 12.6137L7.92723 11.1371L10.6452 13.2223L10.7071 13.2488C11.2735 13.4974 11.8473 13.359 12.1505 13.1149C12.4559 12.8691 12.5746 12.5546 12.5746 12.5546L12.5943 12.504L14.6947 1.74395C14.7543 1.47845 14.7695 1.22982 14.7037 0.988511C14.6361 0.744117 14.4794 0.533954 14.2644 0.399574C14.0841 0.289886 13.8749 0.236969 13.6642 0.247699ZM13.6074 1.40082C13.6302 1.42651 13.6043 1.46518 13.5961 1.50039C13.588 1.53559 13.5963 -0.613133 13.5961 1.50657C13.5959 3.62628 12.5999 10.3246 11.5154 12.1547C10.4309 13.9848 11.4924 12.2022 11.4496 12.2363C11.4069 12.2703 12.0397 12.5586 11.188 12.2205C10.3364 11.8825 9.17997 9.37894 7.86367 9.67182C6.54736 9.96471 6.79441 12.0009 5.85554 11.5022C4.91668 11.0035 5.63614 10.6836 6.27742 8.80782C6.91869 6.93208 10.5351 4.83653 11.7089 3.74532C12.8827 2.65412 11.8466 3.67807 11.858 3.49332C11.8694 3.30857 12.363 3.55573 11.5199 3.41851C10.6768 3.28129 9.43277 4.71149 8.09542 5.53998C6.75807 6.36846 4.82767 8.43455 4.67092 7.66145C4.51417 6.88835 4.80364 8.31524 4.66867 7.6502C4.53369 6.98516 1.38633 7.22168 1.38592 6.54489C1.3855 5.86809 1.38642 6.5447 1.38592 6.54264C1.38542 6.54058 1.38179 6.54391 1.37748 6.54095C1.37317 6.53799 1.38753 6.53725 1.39435 6.5342C1.40118 6.53115 1.40541 6.52813 1.41235 6.5252C1.4193 6.52226 0.246208 6.93921 1.42979 6.51901C2.61338 6.09881 5.10489 4.97073 7.34054 4.02939C9.5762 3.08804 10.5705 2.66842 11.4912 2.28001C12.412 1.89161 13.1834 1.57098 13.55 1.41939C13.9165 1.26779 13.5845 1.37514 13.6074 1.40082Z" fill="#727272"/>
<path d="M13.6074 1.40082C13.6302 1.42651 13.6043 1.46518 13.5961 1.50039C13.588 1.53559 13.5963 -0.613133 13.5961 1.50657C13.5959 3.62628 12.5999 10.3246 11.5154 12.1547C10.4309 13.9848 11.4924 12.2022 11.4496 12.2363C11.4069 12.2703 12.0397 12.5586 11.188 12.2205C10.3364 11.8825 9.17997 9.37894 7.86367 9.67182C6.54736 9.96471 6.79441 12.0009 5.85554 11.5022C4.91668 11.0035 5.63614 10.6836 6.27742 8.80782C6.91869 6.93208 10.5351 4.83653 11.7089 3.74532C12.8827 2.65412 11.8466 3.67807 11.858 3.49332C11.8694 3.30857 12.363 3.55573 11.5199 3.41851C10.6768 3.28129 9.43277 4.71149 8.09542 5.53998C6.75807 6.36846 4.82767 8.43455 4.67092 7.66145C4.51417 6.88835 4.80364 8.31524 4.66867 7.6502C4.53369 6.98516 1.38633 7.22168 1.38592 6.54489C1.3855 5.86809 1.38642 6.5447 1.38592 6.54264C1.38542 6.54058 1.38179 6.54391 1.37748 6.54095C1.37317 6.53799 1.38753 6.53725 1.39435 6.5342C1.40118 6.53115 1.40541 6.52813 1.41235 6.5252C1.4193 6.52226 0.246208 6.93921 1.42979 6.51901C2.61338 6.09881 5.10489 4.97073 7.34054 4.02939C9.5762 3.08804 10.5705 2.66842 11.4912 2.28001C12.412 1.89161 13.1834 1.57098 13.55 1.41939C13.9165 1.26779 13.5845 1.37514 13.6074 1.40082Z" fill="#727272"/>
</svg>
