<svg width="23" height="24" viewBox="0 0 23 24" fill="none" xmlns="http://www.w3.org/2000/svg">
<path d="M15.374 22.358V19.3756C15.413 18.8801 15.346 18.382 15.1776 17.9144C15.0092 17.4467 14.7431 17.0203 14.3972 16.6634C17.6601 16.2997 21.0894 15.0631 21.0894 9.3893C21.0891 7.93845 20.531 6.54324 19.5306 5.49245C20.0043 4.22312 19.9708 2.82009 19.4371 1.57481C19.4371 1.57481 18.2109 1.2111 15.374 3.11277C12.9921 2.46826 10.4817 2.46826 8.09986 3.11277C5.26295 1.2111 4.03674 1.57481 4.03674 1.57481C3.50301 2.82009 3.46951 4.22312 3.94322 5.49245C2.93537 6.55104 2.37671 7.95886 2.38448 9.42047C2.38448 15.0527 5.81371 16.2893 9.07667 16.6946C8.73478 17.0479 8.47111 17.4692 8.30281 17.9311C8.13452 18.393 8.06537 18.8852 8.09986 19.3756V22.358" stroke="#727272" stroke-width="1.95" stroke-linecap="round" stroke-linejoin="round"/>
<path d="M7.99998 20.2797C4.5 22 3.77414 17.3378 1.5 17.5" stroke="#727272" stroke-width="1.95" stroke-linecap="round" stroke-linejoin="round"/>
</svg>
