<svg width="24" height="25" viewBox="0 0 24 25" fill="none" xmlns="http://www.w3.org/2000/svg">
<path d="M1.87 16.9597C2.40629 17.0241 2.80354 17.2696 3.06176 17.6962C3.45027 18.3362 4.8935 20.7066 6.53336 20.7066H9.02057M15.7802 16.52C16.4341 17.3764 16.7611 18.1455 16.7611 18.8272V23.3142M10.0574 16.6296C9.36618 17.3876 9.02097 18.1078 9.02176 18.7903V23.3142" stroke="#727272" stroke-width="3.03899" stroke-linecap="round" stroke-linejoin="round"/>
<path d="M15.7802 16.52C17.2127 16.222 18.5129 15.7072 19.5224 14.9516C21.248 13.6597 22.1299 11.6647 22.1299 9.69475C22.1299 8.3123 21.6056 7.02162 20.695 5.92877C20.1885 5.31978 21.6711 1.31426 20.3542 1.92564C19.0373 2.5382 17.1067 3.35337 16.0948 3.05424C15.0115 2.73485 13.8305 2.55847 12.5958 2.55847C11.5232 2.55847 10.4912 2.69075 9.52824 2.93625C8.12911 3.2914 6.79195 2.50364 5.44526 1.92564C4.09857 1.34882 4.83389 5.51046 4.43346 6.00386C3.56347 7.0824 3.06174 8.34567 3.06174 9.69475C3.06174 11.6647 4.12836 13.6597 5.85404 14.9504C7.00409 15.8109 8.44493 16.3603 10.0574 16.6308" stroke="#727272" stroke-width="3.03899" stroke-linecap="round" stroke-linejoin="round"/>
<path d="M16.3685 16.1636C16.6301 17.065 16.7609 17.8744 16.7609 18.5918V23.3142H13.1917C14.3835 23.3142 10.8082 23.3142 9.0206 23.3142" stroke="#727272" stroke-width="3.03899" stroke-linecap="round" stroke-linejoin="round"/>
<path d="M15.696 6.82782C15.783 7.11442 16.0073 7.71162 16.1955 8.25743C16.3358 8.66473 16.3836 8.97804 16.4023 9.07783C16.4563 9.36509 16.0355 9.83933 15.5808 10.2323C15.3295 10.4495 14.9652 10.6128 14.5886 10.7394C14.212 10.8661 13.8158 10.928 13.4632 10.9413C13.1106 10.9546 12.8135 10.9174 12.5986 10.8179C12.3836 10.7183 12.2598 10.5573 12.128 10.3568C11.9961 10.1563 11.8599 9.92111 10.7685 10.0847C9.67708 10.2482 7.63452 10.8177 6.56992 11.0491C5.50531 11.2806 5.48055 11.1568 5.5235 10.8887C5.56645 10.6207 5.67787 10.2122 5.92714 9.81608C6.17641 9.41994 6.56016 9.04857 6.87546 8.85725C7.19075 8.66594 7.42595 8.66594 7.63377 8.7464C8.0149 8.9878 8.30487 9.36405 8.49225 9.73861C8.56821 9.90273 8.60535 10.0141 8.64361 10.1289" stroke="#727272" stroke-width="2.026" stroke-linecap="round"/>
<path d="M11.8321 11.0292C11.5102 11.871 11.2083 12.3542 10.9401 12.4168C10.8108 12.447 10.6842 12.4052 10.5895 12.3058C10.4948 12.2064 10.4329 12.0331 10.4196 11.6653C10.4062 11.2974 10.4434 10.7404 10.5554 10.2801C10.6673 9.81982 10.853 9.47321 11.3448 9.4989C11.8366 9.5246 12.6289 9.93311 13.0246 10.3726C13.4204 10.812 13.3956 11.2701 13.2715 11.5555C13.1473 11.841 12.9245 11.94 12.6302 11.9415C12.3359 11.943 11.9769 11.844 11.6125 11.434C11.248 11.024 10.889 10.306 10.7103 9.71948C10.5315 9.13297 10.5439 8.6997 10.6122 8.33413C10.6805 7.96857 10.8043 7.68385 10.9485 7.51861C11.0927 7.35337 11.2537 7.31623 11.4108 7.43946C11.568 7.56269 11.7166 7.84741 11.8178 8.32213C11.9191 8.79685 11.9686 9.45295 11.9446 9.93949C11.9206 10.426 11.8216 10.7231 11.6777 10.9443C11.5339 11.1654 11.3482 11.3016 11.1102 11.3779C10.8722 11.4542 10.5874 11.4666 10.3789 11.3802C10.1703 11.2937 10.0465 11.108 9.96416 10.8205C9.88182 10.5329 9.84469 10.1492 9.93697 9.70391C10.0292 9.25863 10.2521 8.76347 10.4721 8.44649C10.6921 8.1295 10.9025 8.00571 11.1038 7.99146C11.305 7.9772 11.4907 8.07624 11.6359 8.35008C11.7811 8.62392 11.8801 9.06957 11.9311 9.5034C11.9822 9.93724 11.9822 10.3457 11.9512 10.6986C11.8949 11.3403 11.6089 11.8646 11.2409 12.2705C10.9411 12.6012 10.4715 12.7165 9.849 12.8415C9.46602 12.9183 8.92938 12.9169 8.5747 12.8987C8.05359 12.8719 7.79425 12.6682 7.62563 12.475C7.4587 12.2837 7.46826 11.8943 7.46189 11.47C7.45098 10.744 7.81751 10.3548 8.05477 10.1796C8.1944 10.0765 8.41733 10.0914 8.64803 10.1595C8.95255 10.2494 9.10531 10.7764 9.27993 11.4861C9.5299 12.5021 9.5067 13.1795 9.33283 13.2483C9.20443 13.2991 8.96089 13.2552 8.74688 13.1684C8.31113 12.9916 7.97018 12.433 7.67646 11.8339C7.4487 11.3693 7.51816 10.8443 7.53672 10.308C7.54631 10.0313 7.59243 9.74705 7.69822 9.38993C7.804 9.03281 7.97731 8.61192 8.178 8.26511C8.37869 7.91831 8.60152 7.65834 8.62965 7.39444C8.72911 6.46157 8.19338 6.26625 8.23671 6.04793C8.28411 5.80905 7.43019 4.52009 7.69822 4.41393C7.9891 4.29872 9.39303 5.47736 9.67269 5.49593C9.87846 5.50959 10.2123 5.55164 10.8054 5.5522C11.3985 5.55276 12.2402 5.51562 12.7296 5.48411C13.3317 5.44534 13.668 5.40234 14.1356 5.42709C14.3812 5.4401 14.6403 5.50137 15.0218 5.63829C15.9137 5.95839 16.4581 6.26475 16.5641 6.32721C16.8297 6.48374 17.2699 6.26588 17.5393 6.06593C17.8136 5.8623 17.9204 5.56664 18.1273 5.4089C18.2757 5.29573 18.5333 5.35244 18.702 5.3275C18.7719 5.31715 18.8087 5.30255 18.8278 5.20333C18.8469 5.10411 18.8469 4.91842 18.8655 4.84133C18.8841 4.76425 18.9212 4.80138 18.9465 4.85146C18.9719 4.90154 18.9842 4.96344 18.9968 5.37908C19.0094 5.79472 19.0218 6.56223 18.9662 7.23614C18.9107 7.91005 18.7869 8.46712 18.717 8.83455C18.6169 9.35986 18.5724 9.77631 18.485 10.1886C18.365 10.7545 17.6998 11.4764 17.5453 11.6921C17.2083 12.1624 18.5589 11.3548 18.6463 11.2489C18.7315 11.1456 18.7468 10.9553 18.7284 10.7494C18.7107 10.5514 18.3983 10.405 17.7833 10.1064C17.3269 9.88482 16.5369 9.60975 15.9309 9.42575C15.3249 9.24175 14.9164 9.17986 14.5264 9.14178C13.7794 9.06883 13.3334 9.09095 13.2456 9.1716C13.1017 9.30382 13.4069 9.57787 13.5751 9.74011C13.6619 9.82382 13.7805 9.87759 13.9307 9.91567C14.081 9.95374 14.2667 9.96612 15.0865 9.79919C15.9063 9.63226 17.3547 9.28564 18.1875 9.0947C19.1904 8.86475 19.4588 8.87825 19.6396 8.94053C19.8399 9.00952 19.972 9.10333 20.0344 9.17179C20.11 9.25462 20.0849 9.39068 20.0663 9.50284C20.021 9.77641 19.7983 9.95262 19.6291 10.2341C19.5462 10.3721 19.4475 10.5033 19.3479 10.653C19.2309 10.8289 18.7382 11.0401 17.7113 11.383C17.066 11.5984 16.1273 11.763 15.5128 11.9145C14.6181 12.1352 14.2712 12.2671 14.1339 12.3662C13.8762 12.552 13.9208 12.9911 13.8272 13.2715C13.6079 13.9285 13.7201 14.2925 13.7636 14.3611C13.8163 14.4442 13.9324 14.4553 14.0382 14.474C14.4026 14.5386 14.7071 14.3183 14.901 14.212C15.1937 14.0515 15.3823 13.9807 15.5453 13.9117C15.838 13.7878 16.2076 13.4555 16.3767 13.3554C16.5552 13.2498 16.708 13.1802 16.9203 13.0928C17.2606 12.9527 17.5205 12.8306 17.6897 12.6803C17.8659 12.5239 17.9962 12.3804 18.0404 12.1991C18.099 11.9591 17.4856 11.8673 16.9323 11.8236C16.5407 11.7926 15.921 11.7922 15.4412 11.8044C14.9614 11.8166 14.6395 11.8538 14.22 11.9472C13.8004 12.0406 13.2928 12.1891 12.7652 12.408C12.2376 12.6269 11.7053 12.9116 11.3816 13.0954C10.7776 13.4384 10.6197 13.6416 10.5257 13.8108C10.4779 13.8969 10.4816 14.0419 10.494 14.2103C10.5158 14.5066 10.868 14.6545 11.1496 14.8236C11.2875 14.9065 11.4063 14.9928 11.4877 15.1108C11.776 15.5285 11.3827 16.1895 11.3382 16.5802C11.3083 16.8431 11.2326 17.4394 11.1571 17.8181C11.0856 18.1759 11.0946 18.5295 11.0757 19.155C11.0687 19.384 10.9821 19.9557 10.9631 20.3684M10.9631 20.3684C10.9567 20.5075 10.9318 20.7431 10.9504 21.0369C10.9573 21.1463 10.9069 20.3494 10.9631 20.3684ZM10.9631 20.3684C11.0904 20.4112 11.6244 20.7703 11.8178 20.3684C12.4331 19.09 12.7686 18.7094 13.2456 20.3684C13.3712 20.8053 14.1147 19.1235 14.1584 19.155C14.2098 19.1921 14.1327 20.5961 14.1515 20.1611C14.1884 19.306 14.1455 18.6949 14.0896 18.4897C13.9033 17.8058 13.758 17.5947 13.4791 16.9003C13.2293 16.2785 12.7422 15.1166 12.4749 14.4738C12.1714 13.744 12.0703 13.5437 11.8837 13.0592C11.5058 12.0782 11.3819 11.3548 11.3758 11.2612C11.3703 11.1781 11.1216 11.117 10.7035 11.0547C10.3409 11.0007 9.98348 10.7681 9.60292 10.4626C9.23799 10.1696 9.00703 9.91698 8.85717 9.81701C8.68509 9.70222 8.38245 9.86559 8.04483 10.0655C7.56767 10.3481 7.26907 10.3788 6.59535 10.4225C6.46438 10.431 6.4678 10.5153 6.48018 10.5905C6.53006 10.8936 6.59235 11.066 6.64899 11.3402C6.67672 11.4744 6.65537 11.7 6.53777 11.4681C6.42016 11.2363 6.18496 10.5431 6.0576 10.1488C5.86428 9.55031 5.8676 9.31715 5.9235 8.99267C5.97594 8.68821 6.06755 8.40447 6.10487 8.18615C6.21447 7.54505 9.93697 7.39444 6.54245 6.41011C6.23575 6.32117 11.9261 7.39777 9.27993 6.06593M9.27993 6.06593C9.0904 5.97054 9.31107 6.14077 9.27993 6.06593ZM9.27993 6.06593C9.26118 6.02823 10.6184 6.48589 10.5554 6.41011" stroke="#727272" stroke-width="4.05199" stroke-linecap="round"/>
</svg>
