<svg width="21" height="23" viewBox="0 0 21 23" fill="none" xmlns="http://www.w3.org/2000/svg">
<path d="M5.04329 2.98253C5.04754 3.52359 4.83865 4.04459 4.4618 4.43286C4.08495 4.82113 3.57042 5.04547 3.02947 5.05738C2.48965 5.03777 1.978 4.81149 1.60029 4.42533C1.22257 4.03917 1.00767 3.52265 1 2.98253C1.02333 2.45616 1.24604 1.95837 1.62294 1.59019C1.99984 1.22201 2.5027 1.01101 3.02947 1C3.55469 1.01122 4.05576 1.22275 4.43013 1.5913C4.8045 1.95985 5.02385 2.45755 5.04329 2.98253ZM1.2175 8.74391C1.2175 7.55157 1.9764 7.73778 3.02947 7.73778C4.08254 7.73778 4.82579 7.55157 4.82579 8.74391V20.3606C4.82579 21.5685 4.06689 21.3213 3.02947 21.3213C1.99205 21.3213 1.2175 21.5685 1.2175 20.3606V8.74391ZM7.95528 8.74547C7.95528 8.07889 8.20251 7.8301 8.589 7.75343C8.97549 7.67675 10.3102 7.75343 10.7734 7.75343C11.2381 7.75343 11.4243 8.51233 11.4087 9.08502C11.8066 8.55222 12.3343 8.13015 12.9416 7.85899C13.5488 7.58784 14.2153 7.47662 14.8777 7.53593C15.5282 7.49621 16.1798 7.59376 16.7902 7.82226C17.4006 8.05076 17.9561 8.4051 18.4206 8.86225C18.8852 9.3194 19.2483 9.86915 19.4866 10.4758C19.7248 11.0824 19.8328 11.7324 19.8035 12.3835V20.3136C19.8035 21.5216 19.0602 21.2744 18.0056 21.2744C16.951 21.2744 16.2093 21.5216 16.2093 20.3136V14.1188C16.2366 13.8 16.1949 13.4791 16.0872 13.1778C15.9794 12.8766 15.8081 12.602 15.5849 12.3728C15.3616 12.1437 15.0917 11.9652 14.7934 11.8496C14.495 11.734 14.1753 11.6839 13.8559 11.7028C13.5378 11.6945 13.2215 11.7538 12.928 11.8769C12.6345 12.0001 12.3706 12.1842 12.1537 12.4171C11.9368 12.65 11.7718 12.9263 11.6698 13.2278C11.5678 13.5293 11.5311 13.849 11.562 14.1657V20.3606C11.562 21.5685 10.8031 21.3213 9.75004 21.3213C8.69696 21.3213 7.95371 21.5685 7.95371 20.3606L7.95528 8.74547Z" stroke="#727272" stroke-width="1.64298" stroke-linecap="round" stroke-linejoin="round"/>
</svg>
