<svg width="17" height="16" viewBox="0 0 17 16" fill="none" xmlns="http://www.w3.org/2000/svg">
<path d="M4.50392 2.01941C4.50702 2.41459 4.35446 2.79512 4.07921 3.0787C3.80397 3.36229 3.42817 3.52614 3.03307 3.53484C2.63879 3.52052 2.2651 3.35525 1.98922 3.07321C1.71335 2.79116 1.55638 2.4139 1.55078 2.01941C1.56782 1.63496 1.73048 1.27139 2.00576 1.00248C2.28104 0.733562 2.64832 0.57945 3.03307 0.571411C3.41668 0.579604 3.78265 0.734102 4.05608 1.00328C4.32951 1.27247 4.48972 1.63598 4.50392 2.01941ZM1.70964 6.22741C1.70964 5.35655 2.26392 5.49255 3.03307 5.49255C3.80221 5.49255 4.34507 5.35655 4.34507 6.22741V14.712C4.34507 15.5943 3.79078 15.4137 3.03307 15.4137C2.27535 15.4137 1.70964 15.5943 1.70964 14.712V6.22741ZM6.63078 6.22855C6.63078 5.7417 6.81135 5.55998 7.09364 5.50398C7.37592 5.44798 8.35078 5.50398 8.68907 5.50398C9.0285 5.50398 9.1645 6.05827 9.15307 6.47655C9.44373 6.08741 9.82917 5.77914 10.2727 5.58109C10.7162 5.38304 11.203 5.30181 11.6868 5.34513C12.1619 5.31611 12.6378 5.38737 13.0837 5.55426C13.5295 5.72115 13.9352 5.97995 14.2745 6.31384C14.6138 6.64774 14.879 7.04926 15.053 7.49235C15.227 7.93543 15.3059 8.41015 15.2845 8.8857V14.6777C15.2845 15.56 14.7416 15.3794 13.9714 15.3794C13.2011 15.3794 12.6594 15.56 12.6594 14.6777V10.1531C12.6793 9.92029 12.6489 9.6859 12.5702 9.46587C12.4915 9.24583 12.3664 9.04531 12.2033 8.87792C12.0402 8.71052 11.8431 8.58018 11.6252 8.49574C11.4073 8.41131 11.1738 8.37475 10.9405 8.38855C10.7081 8.38243 10.4771 8.42578 10.2628 8.51572C10.0484 8.60566 9.85563 8.74013 9.6972 8.91023C9.53877 9.08033 9.41832 9.28217 9.34381 9.50236C9.26931 9.72255 9.24247 9.95606 9.26507 10.1874V14.712C9.26507 15.5943 8.71078 15.4137 7.94164 15.4137C7.1725 15.4137 6.62964 15.5943 6.62964 14.712L6.63078 6.22855Z" stroke="#727272" stroke-linecap="round" stroke-linejoin="round"/>
</svg>
