<svg width="16" height="14" viewBox="0 0 16 14" fill="none" xmlns="http://www.w3.org/2000/svg">
<path d="M14.0831 0.247699C13.9026 0.261091 13.7254 0.303444 13.5583 0.373136H13.556C13.3957 0.436699 12.6336 0.757324 11.4748 1.24332L7.32242 2.99214C4.34286 4.24651 1.41392 5.48176 1.41392 5.48176L1.4488 5.46826C1.4488 5.46826 1.24686 5.53464 1.03592 5.6792C0.905314 5.76175 0.793107 5.87032 0.7063 5.99814C0.6028 6.15001 0.51955 6.38232 0.550487 6.62251C0.601112 7.02864 0.864362 7.2722 1.05336 7.40664C1.24461 7.54276 1.42686 7.60632 1.42686 7.60632H1.43136L4.17805 8.53164C4.30124 8.92707 5.01505 11.2738 5.18661 11.8144C5.28786 12.1373 5.3863 12.3392 5.50949 12.4933C5.56836 12.5721 5.63942 12.6379 5.72267 12.6908C5.76592 12.7168 5.81246 12.7368 5.86105 12.7504L5.83292 12.7436C5.84136 12.7459 5.84811 12.7526 5.8543 12.7549C5.8768 12.7611 5.89199 12.7633 5.92067 12.7678C6.35549 12.8994 6.7048 12.6294 6.7048 12.6294L6.72449 12.6137L8.34617 11.1371L11.0642 13.2223L11.126 13.2488C11.6925 13.4974 12.2662 13.359 12.5694 13.1149C12.8749 12.8691 12.9935 12.5546 12.9935 12.5546L13.0132 12.504L15.1136 1.74395C15.1732 1.47845 15.1884 1.22982 15.1226 0.988511C15.0551 0.744117 14.8983 0.533954 14.6833 0.399574C14.503 0.289886 14.2939 0.236969 14.0831 0.247699ZM14.0263 1.40082C14.024 1.43626 14.0308 1.43232 14.015 1.50039V1.50657L11.9344 12.1547C11.9254 12.1699 11.9102 12.2031 11.8685 12.2363C11.8247 12.2711 11.7898 12.2931 11.607 12.2205L8.28261 9.67182L6.27449 11.5022L6.69636 8.80782L12.1279 3.74532C12.3517 3.5372 12.2769 3.49332 12.2769 3.49332C12.2927 3.23795 11.9389 3.41851 11.9389 3.41851L5.08986 7.66145L5.08761 7.6502L1.80486 6.54489V6.54264L1.79643 6.54095L1.8133 6.5342L1.8313 6.5252L1.84874 6.51901C1.84874 6.51901 4.77992 5.28376 7.75949 4.02939C9.25124 3.40107 10.7542 2.76826 11.9102 2.28001C12.5957 1.99145 13.282 1.70457 13.9689 1.41939C14.015 1.40139 13.9931 1.40082 14.0263 1.40082Z" fill="#727272"/>
</svg>
