<svg width="28" height="28" viewBox="0 0 28 28" fill="none" xmlns="http://www.w3.org/2000/svg">
<rect x="0.5" y="0.5" width="27" height="27" rx="13.5" fill="#F0F0F0"/>
<rect x="0.5" y="0.5" width="27" height="27" rx="13.5" stroke="#D8D8D8"/>
<path d="M19.25 17.8496C19.25 18.8161 18.4665 19.5996 17.5 19.5996C16.5335 19.5996 15.75 18.8161 15.75 17.8496C15.75 16.8831 16.5335 16.0996 17.5 16.0996C18.4665 16.0996 19.25 16.8831 19.25 17.8496Z" stroke="#141B34" stroke-width="1.2"/>
<path d="M12.25 17.8496C12.25 18.8161 11.4665 19.5996 10.5 19.5996C9.5335 19.5996 8.75 18.8161 8.75 17.8496C8.75 16.8831 9.5335 16.0996 10.5 16.0996C11.4665 16.0996 12.25 16.8831 12.25 17.8496Z" stroke="#141B34" stroke-width="1.2"/>
<path d="M15.75 17.8504H12.25M7 8.40039H14C14.9899 8.40039 15.4849 8.40039 15.7925 8.70793C16.1 9.01547 16.1 9.51044 16.1 10.5004V16.4504M16.45 10.1504H17.711C18.2918 10.1504 18.5821 10.1504 18.8229 10.2867C19.0635 10.423 19.213 10.672 19.5117 11.1699L20.7007 13.1516C20.8494 13.3994 20.9238 13.5234 20.9619 13.661C21 13.7985 21 13.943 21 14.2321V16.1004C21 16.7546 21 17.0817 20.8593 17.3254C20.7672 17.485 20.6346 17.6176 20.475 17.7097C20.2313 17.8504 19.9042 17.8504 19.25 17.8504M7 14.7004V16.1004C7 16.7546 7 17.0817 7.14067 17.3254C7.23283 17.485 7.36538 17.6176 7.525 17.7097C7.76866 17.8504 8.09577 17.8504 8.75 17.8504" stroke="#141B34" stroke-width="1.2" stroke-linecap="round" stroke-linejoin="round"/>
<path d="M7 10.5H11.2M7 12.6H9.8" stroke="#141B34" stroke-width="1.2" stroke-linecap="round" stroke-linejoin="round"/>
</svg>
