<svg width="24" height="24" viewBox="0 0 24 24" fill="none" xmlns="http://www.w3.org/2000/svg">
<path d="M15.4912 1.09082H4.1429C2.55262 1.09082 1.15737 2.16504 1.09364 3.71288C1.01344 5.66041 2.38314 6.95361 3.82173 8.16766C5.81183 9.84711 6.80689 10.6869 6.91126 11.7499C6.92759 11.9162 6.92759 12.0836 6.91126 12.2499C6.80689 13.3129 5.81184 14.1527 3.82173 15.8322C2.34351 17.0796 1.00931 18.2394 1.09364 20.2869C1.15737 21.8348 2.55262 22.909 4.1429 22.909H15.4912C17.0815 22.909 18.4767 21.8348 18.5404 20.2869C18.5912 19.0546 18.1345 17.8275 17.1645 16.9745C16.7222 16.5854 16.2631 16.2125 15.8124 15.8322C13.8223 14.1527 12.8272 13.3129 12.7228 12.2499C12.7065 12.0836 12.7065 11.9162 12.7228 11.7499C12.8272 10.6869 13.8223 9.84711 15.8124 8.16766C17.2751 6.93327 18.6238 5.73601 18.5404 3.71288C18.4767 2.16504 17.0815 1.09082 15.4912 1.09082Z" stroke="#141B34" stroke-width="2"/>
<path d="M6.54688 22.5146C6.54688 22.0326 6.54687 21.7915 6.64244 21.5808C6.65761 21.5473 6.6745 21.5146 6.69305 21.4829C6.8098 21.2829 7.00736 21.1417 7.4025 20.8594C8.50015 20.0754 9.04888 19.6833 9.67255 19.6416C9.77051 19.6351 9.86869 19.6351 9.96666 19.6416C10.5903 19.6833 11.1391 20.0754 12.2367 20.8594C12.6319 21.1417 12.8294 21.2829 12.9461 21.4829C12.9647 21.5146 12.9816 21.5473 12.9968 21.5808C13.0923 21.7915 13.0923 22.0326 13.0923 22.5146V22.9094H6.54688V22.5146Z" stroke="#141B34" stroke-width="2" stroke-linecap="round"/>
</svg>
