<svg width="22" height="22" viewBox="0 0 22 22" fill="none" xmlns="http://www.w3.org/2000/svg">
<path d="M18.4999 13V9C18.4999 5.22876 18.4999 3.34315 17.3284 2.17157C16.1568 1 14.2712 1 10.4999 1H9.5C5.72883 1 3.84323 1 2.67166 2.17156C1.50008 3.34312 1.50007 5.22872 1.50004 8.99993L1.5 12.9999C1.49997 16.7712 1.49995 18.6568 2.67153 19.8284C3.8431 21 5.72873 21 9.5 21H10.4999C14.2712 21 16.1568 21 17.3284 19.8284C18.4999 18.6569 18.4999 16.7712 18.4999 13Z" stroke="#141B34" stroke-width="1.5" stroke-linecap="round" stroke-linejoin="round"/>
<path d="M6 6H14M6 11H14M6 16H10" stroke="#141B34" stroke-width="1.5" stroke-linecap="round" stroke-linejoin="round"/>
</svg>
