<svg width="24" height="24" viewBox="0 0 24 24" fill="none" xmlns="http://www.w3.org/2000/svg">
<path d="M20.1821 14.1817V9.81809C20.1821 5.70401 20.1821 3.64698 18.9041 2.3689C17.626 1.09082 15.5689 1.09082 11.4548 1.09082H10.364C6.24999 1.09082 4.19297 1.09082 2.91489 2.36889C1.63681 3.64695 1.6368 5.70397 1.63676 9.81802L1.63672 14.1816C1.63669 18.2958 1.63666 20.3528 2.91475 21.6309C4.19283 22.909 6.24988 22.909 10.364 22.909H11.4548C15.5689 22.909 17.626 22.909 18.9041 21.6309C20.1821 20.3529 20.1821 18.2958 20.1821 14.1817Z" stroke="#141B34" stroke-width="2" stroke-linecap="round" stroke-linejoin="round"/>
<path d="M6.54688 6.5459H15.2741M6.54688 12.0004H15.2741M6.54688 17.455H10.9105" stroke="#141B34" stroke-width="2" stroke-linecap="round" stroke-linejoin="round"/>
</svg>
