<svg width="24" height="24" viewBox="0 0 24 24" fill="none" xmlns="http://www.w3.org/2000/svg">
<path d="M14.1825 7.63619C14.1825 4.62373 11.7404 2.18164 8.72798 2.18164C5.71552 2.18164 3.27344 4.62373 3.27344 7.63619C3.27344 10.6486 5.71552 13.0907 8.72798 13.0907C11.7404 13.0907 14.1825 10.6486 14.1825 7.63619Z" stroke="#141B34" stroke-width="2" stroke-linecap="round" stroke-linejoin="round"/>
<path d="M1.08984 20.7272C1.08984 16.5097 4.50876 13.0908 8.72621 13.0908C9.89741 13.0908 11.007 13.3545 11.9989 13.8257" stroke="#141B34" stroke-width="2" stroke-linecap="round" stroke-linejoin="round"/>
<path d="M15.329 15.3271L20.6745 20.6726M21.82 17.9998C21.82 15.8911 20.1105 14.1816 18.0018 14.1816C15.893 14.1816 14.1836 15.8911 14.1836 17.9998C14.1836 20.1085 15.893 21.818 18.0018 21.818C20.1105 21.818 21.82 20.1085 21.82 17.9998Z" stroke="#141B34" stroke-width="2" stroke-linecap="round" stroke-linejoin="round"/>
</svg>
