<svg width="22" height="22" viewBox="0 0 22 22" fill="none" xmlns="http://www.w3.org/2000/svg">
<path d="M7 5.5C7 7.15685 8.34315 8.5 10 8.5C11.6569 8.5 13 7.15685 13 5.5" stroke="#141B34" stroke-width="1.5" stroke-linecap="round" stroke-linejoin="round"/>
<path d="M15 15.5L20 20.5M15 20.5L20 15.5" stroke="#141B34" stroke-width="1.5" stroke-linecap="round" stroke-linejoin="round"/>
<path d="M12.1084 19.5H8.89162C5.02422 19.5 3.09052 19.5 1.89731 18.1594C0.704112 16.8189 0.910581 15.0497 1.32352 11.5113C1.6739 8.50898 2.18586 6.25784 2.66063 4.65851C3.04994 3.34711 3.24459 2.69141 4.04283 2.0957C4.84107 1.5 5.65697 1.5 7.28876 1.5H12.7113C14.3431 1.5 15.159 1.5 15.9572 2.0957C16.7554 2.69141 16.9501 3.34711 17.3394 4.65851C17.8142 6.25784 18.3261 8.50898 18.6765 11.5113C18.7169 11.8574 18.7553 12.1865 18.7906 12.5" stroke="#141B34" stroke-width="1.5" stroke-linecap="round" stroke-linejoin="round"/>
</svg>
