<svg width="24" height="24" viewBox="0 0 24 24" fill="none" xmlns="http://www.w3.org/2000/svg">
<path d="M7.63672 6C7.63672 7.80747 9.10197 9.27273 10.9094 9.27273C12.717 9.27273 14.1822 7.80747 14.1822 6" stroke="#141B34" stroke-width="2" stroke-linecap="round" stroke-linejoin="round"/>
<path d="M16.3633 16.9092L21.8178 22.3637M16.3633 22.3637L21.8178 16.9092" stroke="#141B34" stroke-width="2" stroke-linecap="round" stroke-linejoin="round"/>
<path d="M13.2081 21.2731H9.69888C5.4799 21.2731 3.37041 21.2731 2.06873 19.8106C0.767056 18.3482 0.992296 16.4182 1.44278 12.5581C1.82501 9.28288 2.38351 6.82709 2.90144 5.08237C3.32614 3.65175 3.53849 2.93644 4.4093 2.28657C5.2801 1.63672 6.17018 1.63672 7.95031 1.63672H13.8658C15.646 1.63672 16.536 1.63672 17.4068 2.28657C18.2776 2.93644 18.49 3.65175 18.9146 5.08237C19.4326 6.82709 19.991 9.28288 20.3733 12.5581C20.4174 12.9357 20.4593 13.2947 20.4978 13.6367" stroke="#141B34" stroke-width="2" stroke-linecap="round" stroke-linejoin="round"/>
</svg>
