<svg width="28" height="28" viewBox="0 0 28 28" fill="none" xmlns="http://www.w3.org/2000/svg">
<rect x="0.5" y="0.5" width="27" height="27" rx="13.5" fill="#F0F0F0"/>
<rect x="0.5" y="0.5" width="27" height="27" rx="13.5" stroke="#D8D8D8"/>
<path d="M16.0996 10.5C16.0996 8.56701 14.5326 7 12.5996 7C10.6666 7 9.09961 8.56701 9.09961 10.5C9.09961 12.433 10.6666 14 12.5996 14C14.5326 14 16.0996 12.433 16.0996 10.5Z" stroke="#141B34" stroke-width="1.2" stroke-linecap="round" stroke-linejoin="round"/>
<path d="M7.7002 18.9C7.7002 16.1938 9.894 14 12.6002 14C13.3517 14 14.0637 14.1692 14.7002 14.4715" stroke="#141B34" stroke-width="1.2" stroke-linecap="round" stroke-linejoin="round"/>
<path d="M18.2004 20.3004C18.2004 20.3004 21.0004 19.0034 21.0004 16.8976C21.0004 16.0707 20.4109 15.4004 19.6004 15.4004C18.9372 15.4004 18.4952 15.6887 18.2004 16.2651C17.9056 15.6887 17.4636 15.4004 16.8004 15.4004C15.9899 15.4004 15.4004 16.0707 15.4004 16.8976C15.4004 19.0034 18.2004 20.3004 18.2004 20.3004Z" stroke="#141B34" stroke-width="1.2" stroke-linecap="round" stroke-linejoin="round"/>
</svg>
