<svg width="24" height="24" viewBox="0 0 24 24" fill="none" xmlns="http://www.w3.org/2000/svg">
<path d="M1.08984 1.09082L22.908 22.909" stroke="#141B34" stroke-width="2" stroke-linecap="round" stroke-linejoin="round"/>
<path d="M6.15234 1.78962C6.52488 1.76908 6.92911 1.75178 7.36983 1.73293C8.83053 1.67043 10.3859 1.63672 11.9995 1.63672C13.613 1.63672 15.1683 1.67043 16.6291 1.73293C19.2914 1.84683 20.6226 1.90378 21.6757 2.96485C22.7289 4.02591 22.7746 5.32053 22.8659 7.90977C22.8938 8.70231 22.9086 9.52313 22.9086 10.364C22.9086 11.2049 22.8938 12.0257 22.8659 12.8182C22.7811 15.219 22.7358 16.5068 21.8901 17.5273" stroke="#141B34" stroke-width="2" stroke-linecap="round" stroke-linejoin="round"/>
<path d="M2.32265 2.96582C1.26951 4.02688 1.22383 5.32151 1.13249 7.91075C1.10453 8.70328 1.08984 9.5241 1.08984 10.365C1.08984 11.2058 1.10453 12.0266 1.13249 12.8192C1.22383 15.4085 1.26951 16.703 2.32265 17.7641C3.37579 18.8252 4.70696 18.8821 7.36932 18.996C7.45764 18.9998 7.5463 19.0034 7.6353 19.007V21.5687C7.6353 22.0085 7.9918 22.365 8.43156 22.365C8.62169 22.365 8.80555 22.2969 8.94988 22.1732L11.3275 20.1344C11.9253 19.6219 12.2241 19.3656 12.5793 19.2303C12.9345 19.0951 13.3388 19.0873 14.1473 19.0721C14.9987 19.0559 15.8278 19.0303 16.6284 18.996C17.5314 18.9574 18.2812 18.9253 18.9189 18.8585" stroke="#141B34" stroke-width="2" stroke-linecap="round" stroke-linejoin="round"/>
</svg>
