<svg width="22" height="22" viewBox="0 0 22 22" fill="none" xmlns="http://www.w3.org/2000/svg">
<path d="M13 7C13 4.23858 10.7614 2 8 2C5.23858 2 3 4.23858 3 7C3 9.7614 5.23858 12 8 12C10.7614 12 13 9.7614 13 7Z" stroke="#141B34" stroke-width="1.5" stroke-linecap="round" stroke-linejoin="round"/>
<path d="M1 19C1 15.134 4.13401 12 8 12C9.0736 12 10.0907 12.2417 11 12.6736" stroke="#141B34" stroke-width="1.5" stroke-linecap="round" stroke-linejoin="round"/>
<path d="M14.05 14.05L18.95 18.95M20 16.5C20 14.567 18.433 13 16.5 13C14.567 13 13 14.567 13 16.5C13 18.433 14.567 20 16.5 20C18.433 20 20 18.433 20 16.5Z" stroke="#141B34" stroke-width="1.5" stroke-linecap="round" stroke-linejoin="round"/>
</svg>
