<svg width="22" height="22" viewBox="0 0 22 22" fill="none" xmlns="http://www.w3.org/2000/svg">
<path d="M14.2013 1H3.79864C2.34088 1 1.0619 1.9847 1.00348 3.40355C0.929968 5.18879 2.18552 6.37422 3.50423 7.4871C5.32849 9.0266 6.24063 9.7964 6.3363 10.7708C6.35127 10.9233 6.35127 11.0767 6.3363 11.2292C6.24063 12.2036 5.3285 12.9734 3.50423 14.5129C2.1492 15.6564 0.926178 16.7195 1.00348 18.5964C1.0619 20.0153 2.34088 21 3.79864 21H14.2013C15.659 21 16.938 20.0153 16.9964 18.5964C17.0429 17.4668 16.6243 16.342 15.7351 15.56C15.3297 15.2034 14.9088 14.8615 14.4957 14.5129C12.6714 12.9734 11.7593 12.2036 11.6636 11.2292C11.6486 11.0767 11.6486 10.9233 11.6636 10.7708C11.7593 9.7964 12.6714 9.0266 14.4957 7.4871C15.8365 6.35558 17.0728 5.25809 16.9964 3.40355C16.938 1.9847 15.659 1 14.2013 1Z" stroke="#141B34" stroke-width="1.5"/>
<path d="M6 20.6381C6 20.1962 6 19.9752 6.0876 19.7821C6.10151 19.7514 6.11699 19.7214 6.13399 19.6923C6.24101 19.509 6.42211 19.3796 6.78432 19.1208C7.7905 18.4021 8.2935 18.0427 8.8652 18.0045C8.955 17.9985 9.045 17.9985 9.1348 18.0045C9.7065 18.0427 10.2095 18.4021 11.2157 19.1208C11.5779 19.3796 11.759 19.509 11.866 19.6923C11.883 19.7214 11.8985 19.7514 11.9124 19.7821C12 19.9752 12 20.1962 12 20.6381V21H6V20.6381Z" stroke="#141B34" stroke-width="1.5" stroke-linecap="round"/>
</svg>
