<svg width="22" height="22" viewBox="0 0 22 22" fill="none" xmlns="http://www.w3.org/2000/svg">
<path d="M1 1L21 21" stroke="#141B34" stroke-width="1.5" stroke-linecap="round" stroke-linejoin="round"/>
<path d="M5.64062 1.64016C5.98212 1.62133 6.35266 1.60547 6.75665 1.58819C8.09562 1.5309 9.52138 1.5 11.0005 1.5C12.4796 1.5 13.9053 1.5309 15.2443 1.58819C17.6848 1.6926 18.905 1.74481 19.8704 2.71745C20.8358 3.69009 20.8777 4.87683 20.9614 7.2503C20.987 7.97679 21.0005 8.72921 21.0005 9.5C21.0005 10.2708 20.987 11.0232 20.9614 11.7497C20.8837 13.9504 20.8421 15.1309 20.0669 16.0664" stroke="#141B34" stroke-width="1.5" stroke-linecap="round" stroke-linejoin="round"/>
<path d="M2.13007 2.71875C1.16469 3.69139 1.12282 4.87813 1.03909 7.2516C1.01346 7.97809 1 8.73051 1 9.5013C1 10.2721 1.01346 11.0245 1.03909 11.751C1.12282 14.1245 1.16469 15.3112 2.13007 16.2838C3.09545 17.2565 4.31569 17.3087 6.75619 17.4131C6.83715 17.4166 6.91842 17.4199 7 17.4232V19.7714C7 20.1745 7.32679 20.5013 7.72991 20.5013C7.90419 20.5013 8.07273 20.4389 8.20503 20.3255L10.3845 18.4566C10.9325 17.9868 11.2064 17.7519 11.532 17.6279C11.8576 17.5039 12.2282 17.4968 12.9693 17.4828C13.7498 17.468 14.5098 17.4445 15.2437 17.4131C16.0714 17.3777 16.7587 17.3483 17.3433 17.287" stroke="#141B34" stroke-width="1.5" stroke-linecap="round" stroke-linejoin="round"/>
</svg>
