<svg width="28" height="28" viewBox="0 0 28 28" fill="none" xmlns="http://www.w3.org/2000/svg">
<rect x="0.5" y="0.5" width="27" height="27" rx="13.5" fill="#F0F0F0"/>
<rect x="0.5" y="0.5" width="27" height="27" rx="13.5" stroke="#D8D8D8"/>
<path d="M14.0102 7.06529C14.2287 6.97824 14.4716 6.97824 14.6902 7.06529C15.3947 7.34584 15.5323 8.42621 16.3635 8.48635C16.9489 8.5287 17.5233 8.04074 18.1107 8.18702C18.3475 8.24602 18.5522 8.39705 18.6804 8.6076C19.0732 9.25277 18.5662 10.201 19.207 10.7364C19.6522 11.1081 20.3878 11.06 20.7748 11.5158C20.9378 11.7077 21.0178 11.9581 20.9969 12.2106C20.935 12.9616 19.9774 13.4313 20.1878 14.2407C20.3334 14.801 20.9479 15.1949 20.9969 15.7894C21.0178 16.0419 20.9378 16.2923 20.7748 16.4842C20.2884 17.0568 19.2368 16.8682 18.9335 17.6443C18.7206 18.1891 18.994 18.8774 18.6804 19.3924C18.5522 19.6029 18.3475 19.754 18.1107 19.813C17.3813 19.9946 16.6411 19.2111 15.9393 19.6531C15.4382 19.9685 15.2587 20.7084 14.6902 20.9347C14.4716 21.0218 14.2287 21.0218 14.0102 20.9347C13.4417 20.7084 13.2622 19.9685 12.7611 19.6531C12.068 19.2167 11.3067 19.9915 10.5897 19.813C10.3528 19.754 10.1482 19.6029 10.02 19.3924C9.6272 18.7473 10.1341 17.7989 9.49339 17.2636C9.04827 16.8918 8.31265 16.94 7.92562 16.4842C7.76264 16.2923 7.68258 16.0419 7.70345 15.7894C7.75259 15.1949 8.36688 14.801 8.51255 14.2407C8.72085 13.4398 7.76462 12.9506 7.70345 12.2106C7.68258 11.9581 7.76264 11.7077 7.92562 11.5158C8.41193 10.943 9.46349 11.1318 9.76686 10.3557C9.97983 9.81092 9.70645 9.12259 10.02 8.6076C10.1482 8.39705 10.3528 8.24602 10.5897 8.18702C11.1771 8.04074 11.7515 8.52871 12.3368 8.48635C13.1681 8.42622 13.3057 7.34584 14.0102 7.06529Z" stroke="#141B34" stroke-width="1.2" stroke-linejoin="round"/>
<path d="M12.25 14.9329C12.25 14.9329 12.8625 14.9329 13.475 16.0996C13.475 16.0996 15.4206 13.1829 17.15 12.5996" stroke="#141B34" stroke-width="1.2" stroke-linecap="round" stroke-linejoin="round"/>
</svg>
