<svg width="28" height="28" viewBox="0 0 28 28" fill="none" xmlns="http://www.w3.org/2000/svg">
<rect x="0.5" y="0.5" width="27" height="27" rx="13.5" fill="#F0F0F0"/>
<rect x="0.5" y="0.5" width="27" height="27" rx="13.5" stroke="#D8D8D8"/>
<path d="M10.8465 15.2256C13.0085 12.7136 17.9054 7.80688 19.9773 7.70165C21.2591 7.57888 18.7055 12.1264 12.6551 17.1023M13.6209 12.63L15.2012 14.226M7.7002 20.1968C8.19683 18.4416 7.8835 19.3041 8.05304 17.2829C8.14334 16.9836 8.325 16.0549 9.4597 15.5921C10.7495 15.066 11.6951 15.8613 11.9395 16.235C12.6595 17.0157 12.7429 17.9852 11.9395 19.0927C11.136 20.2003 8.75266 20.4754 7.7002 20.1968Z" stroke="#141B34" stroke-width="1.2" stroke-linecap="round" stroke-linejoin="round"/>
</svg>
