<svg width="18" height="23" viewBox="0 0 18 23" fill="none" xmlns="http://www.w3.org/2000/svg">
<path d="M17.765 5.615L12.385 0.235C12.235 0.085 12.0325 0 11.82 0H1.20002C0.757524 0 0.400024 0.3575 0.400024 0.8V21.6C0.400024 22.0425 0.757524 22.4 1.20002 22.4H17.2C17.6425 22.4 18 22.0425 18 21.6V6.1825C18 5.97 17.915 5.765 17.765 5.615ZM16.155 6.55H11.45V1.845L16.155 6.55ZM16.2 20.6H2.20002V1.8H9.75002V7.2C9.75002 7.47848 9.86065 7.74555 10.0576 7.94246C10.2545 8.13938 10.5215 8.25 10.8 8.25H16.2V20.6ZM9.00002 13.85H4.40002C4.29002 13.85 4.20002 13.94 4.20002 14.05V15.25C4.20002 15.36 4.29002 15.45 4.40002 15.45H9.00002C9.11002 15.45 9.20002 15.36 9.20002 15.25V14.05C9.20002 13.94 9.11002 13.85 9.00002 13.85ZM4.20002 10.65V11.85C4.20002 11.96 4.29002 12.05 4.40002 12.05H14C14.11 12.05 14.2 11.96 14.2 11.85V10.65C14.2 10.54 14.11 10.45 14 10.45H4.40002C4.29002 10.45 4.20002 10.54 4.20002 10.65Z" fill="black"/>
</svg>
