<svg width="18" height="24" viewBox="0 0 18 24" fill="none" xmlns="http://www.w3.org/2000/svg">
<path d="M17.6434 8.30579L10.2964 0.95879C10.1097 0.77187 9.85647 0.666736 9.59229 0.666504H3.65357C2.68458 0.666504 1.75528 1.05143 1.07011 1.73661C0.384928 2.42179 0 3.35109 0 4.32008V20.2629C0 21.2319 0.384928 22.1612 1.07011 22.8464C1.75528 23.5316 2.68458 23.9165 3.65357 23.9165H14.2821C15.2511 23.9165 16.1804 23.5316 16.8656 22.8464C17.5508 22.1612 17.9357 21.2319 17.9357 20.2629V8.97008C17.9253 8.71978 17.8209 8.4826 17.6434 8.30579ZM10.6286 4.06765L14.5346 7.97365H10.6286V4.06765ZM14.2821 21.9236H3.65357C3.21312 21.9236 2.79071 21.7487 2.47927 21.4372C2.16782 21.1258 1.99286 20.7034 1.99286 20.2629V4.32008C1.99286 3.87963 2.16782 3.45722 2.47927 3.14577C2.79071 2.83433 3.21312 2.65936 3.65357 2.65936H8.63571V8.97008C8.63915 9.23327 8.74524 9.48473 8.93137 9.67085C9.11749 9.85698 9.36894 9.96306 9.63214 9.9665H15.9429V20.2629C15.9429 20.7034 15.7679 21.1258 15.4564 21.4372C15.145 21.7487 14.7226 21.9236 14.2821 21.9236Z" fill="black"/>
<path d="M12.2499 12.1718C12.04 12.0114 11.7762 11.9385 11.5137 11.9682C11.2512 11.9979 11.0103 12.128 10.8416 12.3313L8.96831 14.6828L7.09502 12.2914C7.00779 12.1885 6.90113 12.1037 6.78115 12.042C6.66116 11.9803 6.53019 11.9428 6.39572 11.9317C6.26124 11.9206 6.1259 11.9361 5.99742 11.9773C5.86893 12.0185 5.74982 12.0846 5.64688 12.1718C5.54394 12.2591 5.4592 12.3657 5.39748 12.4857C5.33576 12.6057 5.29828 12.7367 5.28718 12.8711C5.27607 13.0056 5.29156 13.141 5.33277 13.2694C5.37397 13.3979 5.44008 13.517 5.52731 13.62L7.63974 16.2771L5.52731 18.9343C5.3617 19.1422 5.28546 19.4073 5.31536 19.6714C5.34526 19.9355 5.47885 20.1769 5.68674 20.3426C5.89463 20.5082 6.1598 20.5844 6.4239 20.5545C6.68801 20.5246 6.92942 20.391 7.09502 20.1831L8.96831 17.8714L10.8416 20.2628C10.937 20.3785 11.0567 20.4718 11.1921 20.5361C11.3276 20.6003 11.4755 20.6341 11.6255 20.6348C11.8292 20.6517 12.0332 20.6055 12.2098 20.5025C12.3864 20.3995 12.527 20.2446 12.6126 20.0589C12.6982 19.8733 12.7246 19.6657 12.6882 19.4646C12.6519 19.2634 12.5545 19.0782 12.4093 18.9343L10.2969 16.2771L12.4625 13.62C12.5451 13.5115 12.6053 13.3877 12.6394 13.2556C12.6735 13.1236 12.6809 12.9861 12.6611 12.8512C12.6413 12.7162 12.5947 12.5866 12.5241 12.47C12.4535 12.3533 12.3602 12.2519 12.2499 12.1718Z" fill="black"/>
</svg>
