<svg width="24" height="24" viewBox="0 0 24 24" fill="none" xmlns="http://www.w3.org/2000/svg">
<path d="M12.125 23.9165C9.8258 23.9165 7.57822 23.2347 5.6665 21.9573C3.75478 20.68 2.26477 18.8644 1.38491 16.7402C0.505037 14.616 0.274823 12.2786 0.723376 10.0236C1.17193 7.76856 2.2791 5.69718 3.90489 4.07139C5.53067 2.44561 7.60205 1.33843 9.85708 0.88988C12.1121 0.441327 14.4495 0.671541 16.5737 1.55141C18.6979 2.43128 20.5135 3.92128 21.7908 5.833C23.0682 7.74473 23.75 9.9923 23.75 12.2915C23.75 15.3747 22.5252 18.3315 20.3451 20.5116C18.165 22.6917 15.2081 23.9165 12.125 23.9165ZM12.125 2.60401C10.209 2.60401 8.33602 3.17217 6.74292 4.23665C5.14982 5.30112 3.90815 6.8141 3.17492 8.58426C2.4417 10.3544 2.24985 12.3023 2.62365 14.1814C2.99744 16.0606 3.92009 17.7868 5.27491 19.1416C6.62973 20.4964 8.35588 21.4191 10.2351 21.7929C12.1143 22.1667 14.0621 21.9748 15.8323 21.2416C17.6024 20.5084 19.1154 19.2667 20.1799 17.6736C21.2443 16.0805 21.8125 14.2075 21.8125 12.2915C21.8125 9.72222 20.7919 7.25817 18.9751 5.44141C17.1583 3.62465 14.6943 2.60401 12.125 2.60401Z" fill="black"/>
<path d="M8.25012 17.1353C8.12284 17.1359 7.99672 17.111 7.87917 17.0622C7.76161 17.0134 7.65498 16.9417 7.56554 16.8511C7.38413 16.6695 7.28223 16.4232 7.28223 16.1665C7.28223 15.9098 7.38413 15.6636 7.56554 15.4819L15.3155 7.73193C15.4992 7.56081 15.7421 7.46765 15.993 7.47207C16.244 7.4765 16.4835 7.57817 16.661 7.75567C16.8385 7.93316 16.9401 8.17261 16.9446 8.42359C16.949 8.67456 16.8558 8.91745 16.6847 9.10109L8.93471 16.8511C8.84527 16.9417 8.73864 17.0134 8.62108 17.0622C8.50352 17.111 8.37741 17.1359 8.25012 17.1353Z" fill="black"/>
<path d="M16.0002 17.1353C15.873 17.1359 15.7468 17.111 15.6293 17.0622C15.5117 17.0134 15.4051 16.9417 15.3157 16.8511L7.56567 9.10109C7.39455 8.91745 7.30139 8.67456 7.30581 8.42359C7.31024 8.17261 7.41191 7.93316 7.58941 7.75567C7.7669 7.57817 8.00635 7.4765 8.25733 7.47207C8.5083 7.46765 8.75119 7.56081 8.93483 7.73193L16.6848 15.4819C16.8662 15.6636 16.9681 15.9098 16.9681 16.1665C16.9681 16.4232 16.8662 16.6695 16.6848 16.8511C16.5954 16.9417 16.4888 17.0134 16.3712 17.0622C16.2537 17.111 16.1275 17.1359 16.0002 17.1353Z" fill="black"/>
</svg>
