<svg width="23" height="23" viewBox="0 0 23 23" fill="none" xmlns="http://www.w3.org/2000/svg">
<path d="M6.69995 11.8H16.9M16.9 11.8L12.9333 7.83337M16.9 11.8L12.9333 15.7667" stroke="black" stroke-width="1.6" stroke-linecap="round" stroke-linejoin="round"/>
<path d="M22 11.8C22 13.1395 21.7361 14.4659 21.2235 15.7034C20.7109 16.9409 19.9596 18.0653 19.0125 19.0125C18.0653 19.9597 16.9409 20.711 15.7033 21.2236C14.4658 21.7362 13.1395 22 11.8 22C10.4605 22 9.13413 21.7362 7.8966 21.2236C6.65908 20.711 5.53464 19.9597 4.58749 19.0125C3.64033 18.0653 2.889 16.9409 2.3764 15.7034C1.86381 14.4659 1.59998 13.1395 1.59998 11.8C1.59998 9.0948 2.67462 6.50039 4.58749 4.58752C6.50036 2.67465 9.09477 1.60001 11.8 1.60001C14.5052 1.60001 17.0996 2.67465 19.0125 4.58752C20.9253 6.50039 22 9.0948 22 11.8Z" stroke="black" stroke-width="1.6" stroke-linecap="round" stroke-linejoin="round"/>
</svg>
