<svg width="23" height="23" viewBox="0 0 23 23" fill="none" xmlns="http://www.w3.org/2000/svg">
<path d="M21.7672 12.2256C21.6093 14.2104 20.8849 16.1082 19.6801 17.6934C18.4754 19.2786 16.8409 20.4847 14.9708 21.1684C13.1008 21.852 11.0738 21.9845 9.13071 21.55C7.1876 21.1155 5.41005 20.1324 4.00923 18.7175C2.60841 17.3025 1.64322 15.5152 1.22831 13.5678C0.813402 11.6204 0.966226 9.59485 1.66862 7.73178C2.37102 5.8687 3.59347 4.24641 5.19073 3.05764C6.78799 1.86887 8.69293 1.1636 10.6792 1.0256" stroke="black" stroke-width="1.6" stroke-linecap="round" stroke-linejoin="round"/>
<path d="M15.8633 13.144C15.5744 13.8877 15.1046 14.5476 14.4965 15.0641C13.8885 15.5806 13.1612 15.9374 12.3806 16.1022C11.6 16.267 10.7906 16.2346 10.0256 16.008C9.26065 15.7813 8.56425 15.3676 7.99937 14.8042C7.43449 14.2407 7.01897 13.5454 6.79037 12.781C6.56177 12.0166 6.5273 11.2073 6.69009 10.4263C6.85288 9.64525 7.20779 8.9171 7.72272 8.3077C8.23765 7.69829 8.89636 7.22685 9.63929 6.936M11.3993 11.4L15.3993 7.4M15.3993 7.4L18.5993 8.2L21.7993 5L18.5993 4.2L17.7993 1L14.5993 4.2L15.3993 7.4Z" stroke="black" stroke-width="1.6" stroke-linecap="round" stroke-linejoin="round"/>
</svg>
