<svg width="24" height="25" viewBox="0 0 24 25" fill="none" xmlns="http://www.w3.org/2000/svg">
<path d="M1.51687 14.8914L2.64187 5.89136C2.71039 5.3475 2.9751 4.84736 3.38628 4.48485C3.79746 4.12235 4.32684 3.92242 4.875 3.92261H21C21.3978 3.92261 21.7794 4.08064 22.0607 4.36195C22.342 4.64325 22.5 5.02478 22.5 5.42261V13.6726C22.5 14.0704 22.342 14.452 22.0607 14.7333C21.7794 15.0146 21.3978 15.1726 21 15.1726H16.9631L13.4213 22.2582C13.3589 22.3828 13.2631 22.4876 13.1445 22.5608C13.0259 22.634 12.8893 22.6727 12.75 22.6726C11.7554 22.6726 10.8016 22.2775 10.0983 21.5743C9.39509 20.871 9 19.9172 9 18.9226V17.4226H3.75C3.43072 17.4227 3.11506 17.3549 2.82402 17.2236C2.53298 17.0923 2.27321 16.9006 2.06198 16.6611C1.85076 16.4217 1.6929 16.1401 1.59892 15.8349C1.50493 15.5298 1.47696 15.2081 1.51687 14.8914ZM17.25 13.6726H21V5.42261H17.25V13.6726ZM3.1875 15.6685C3.25739 15.7489 3.34385 15.8133 3.44094 15.8571C3.53804 15.901 3.64347 15.9233 3.75 15.9226H9.75C9.94891 15.9226 10.1397 16.0016 10.2803 16.1423C10.421 16.2829 10.5 16.4737 10.5 16.6726V18.9226C10.4999 19.4428 10.68 19.947 11.0097 20.3493C11.3394 20.7517 11.7984 21.0274 12.3084 21.1295L15.75 14.2454V5.42261H4.875C4.69228 5.42254 4.51582 5.48919 4.37876 5.61002C4.2417 5.73086 4.15347 5.89757 4.13062 6.07886L3.00562 15.0789C2.99157 15.1845 3.00056 15.2918 3.03195 15.3936C3.06335 15.4954 3.11641 15.5892 3.1875 15.6685Z" fill="#ED4C5C"/>
</svg>
