<svg width="24" height="24" viewBox="0 0 24 24" fill="none" xmlns="http://www.w3.org/2000/svg">
<path d="M11.625 0.666504C5.21833 0.666504 0 5.88484 0 12.2915C0 18.6982 5.21833 23.9165 11.625 23.9165C18.0317 23.9165 23.25 18.6982 23.25 12.2915C23.25 5.88484 18.0317 0.666504 11.625 0.666504ZM11.625 21.979C6.2775 21.979 1.9375 17.639 1.9375 12.2915C1.9375 6.944 6.2775 2.604 11.625 2.604C16.9725 2.604 21.3125 6.944 21.3125 12.2915C21.3125 17.639 16.9725 21.979 11.625 21.979ZM14.5958 6.73734C15.3838 7.52525 15.8229 8.58442 15.8229 9.70817C15.8229 10.8319 15.3838 11.8782 14.5958 12.679C14.0404 13.2344 13.3429 13.6219 12.5938 13.7898V14.229C12.5938 14.7586 12.1546 15.1978 11.625 15.1978C11.0954 15.1978 10.6562 14.7586 10.6562 14.229V12.9373C10.6562 12.4078 11.0954 11.9686 11.625 11.9686C11.9223 11.9703 12.217 11.913 12.492 11.8C12.7671 11.687 13.0169 11.5206 13.2272 11.3103C13.4374 11.1001 13.6039 10.8502 13.7168 10.5752C13.8298 10.3002 13.8871 10.0055 13.8854 9.70817C13.8854 9.10109 13.6529 8.53275 13.2267 8.1065C12.3742 7.254 10.8888 7.254 10.0363 8.1065C9.61 8.53275 9.3775 9.10109 9.3775 9.70817C9.3775 10.2378 8.93833 10.6769 8.40875 10.6769C7.87917 10.6769 7.44 10.2378 7.44 9.70817C7.44 8.58442 7.87917 7.53817 8.66708 6.73734C10.2558 5.14859 13.02 5.14859 14.6088 6.73734H14.5958ZM12.9167 17.7811C12.9167 18.4915 12.3354 19.0728 11.625 19.0728C10.9146 19.0728 10.3333 18.4915 10.3333 17.7811C10.3333 17.0707 10.9146 16.4894 11.625 16.4894C12.3354 16.4894 12.9167 17.0707 12.9167 17.7811Z" fill="black"/>
</svg>
